<?xml version="1.0" encoding="UTF-8" standalone="no"?>
<svg
   xmlns:dc="http://purl.org/dc/elements/1.1/"
   xmlns:cc="http://creativecommons.org/ns#"
   xmlns:rdf="http://www.w3.org/1999/02/22-rdf-syntax-ns#"
   xmlns:svg="http://www.w3.org/2000/svg"
   xmlns="http://www.w3.org/2000/svg"
   xmlns:sodipodi="http://sodipodi.sourceforge.net/DTD/sodipodi-0.dtd"
   xmlns:inkscape="http://www.inkscape.org/namespaces/inkscape"
   id="Layer_1"
   height="512"
   viewBox="0 0 512 512"
   width="512"
   data-name="Layer 1"
   version="1.1"
   sodipodi:docname="gavel.svg"
   inkscape:export-filename="C:\Users\vanes\OneDrive\Desafios de Programação\2020\WesBos\30days-of-javascript\challenge-files\30 - Whack A Mole\css\gavel.png"
   inkscape:export-xdpi="18.75"
   inkscape:export-ydpi="18.75"
   inkscape:version="0.92.3 (2405546, 2018-03-11)">
  <metadata
     id="metadata847">
    <rdf:RDF>
      <cc:Work
         rdf:about="">
        <dc:format>image/svg+xml</dc:format>
        <dc:type
           rdf:resource="http://purl.org/dc/dcmitype/StillImage" />
        <dc:title></dc:title>
      </cc:Work>
    </rdf:RDF>
  </metadata>
  <defs
     id="defs845" />
  <sodipodi:namedview
     pagecolor="#ffffff"
     bordercolor="#666666"
     borderopacity="1"
     objecttolerance="10"
     gridtolerance="10"
     guidetolerance="10"
     inkscape:pageopacity="0"
     inkscape:pageshadow="2"
     inkscape:window-width="1366"
     inkscape:window-height="705"
     id="namedview843"
     showgrid="false"
     inkscape:zoom="0.37012621"
     inkscape:cx="-25.875098"
     inkscape:cy="26.313457"
     inkscape:window-x="-8"
     inkscape:window-y="-8"
     inkscape:window-maximized="1"
     inkscape:current-layer="Layer_1" />
  <path
     d="m 223.71318,192.608 14.736,14.736 -32.043,32.042 -14.79,-14.791 c 5.34,-4.784 10.72,-9.835 16.084,-15.167 5.638,-5.604 10.974,-11.228 16.013,-16.82 z"
     id="path832"
     style="fill:#4e2a2a;fill-opacity:1"
     inkscape:connector-curvature="0" />
  <path
     d="m 261.83066,221.93332 -11.88184,-11.88185 -40.78895,40.78896 11.88184,11.88184 z"
     id="path834"
     style="fill:#4e2a2a;fill-opacity:1;stroke-width:0.99984896"
     inkscape:connector-curvature="0" />
  <path
     d="m 347.67918,309.172 c 36.329,32.433 72.235,59.79 106.959,86.247 q 6.477,4.935 12.836,9.79 a 39.279,39.279 0 0 1 13.094,27.8 32.385,32.385 0 0 1 -9.321,24.079 l -14.171,14.172 a 32.407,32.407 0 0 1 -25.611,9.246 c -14.178,-0.983 -23.521,-10 -26.259,-13.006 -30.333,-40.445 -62.783,-80.114 -96.448,-117.906 q -8.6,-9.656 -17,-19.141 c -20.438,-23.045 -39.8,-44.865 -59.114,-65.258 l 32.394,-32.393 c 22.712,22.067 48.412,45.814 82.641,76.37 z"
     id="path836"
     style="fill:#4e2a2a;fill-opacity:1"
     inkscape:connector-curvature="0" />
  <path
     d="m 94.595181,100.921 q -7.042,7.215 -13.386,14.423 l -11.788,-5.078 40.838999,-40.839 5.071,11.773 c -6.895,6.1 -13.849,12.668 -20.735999,19.721 z"
     id="path838"
     style="fill:#4e2a2a;fill-opacity:1"
     inkscape:connector-curvature="0" />
  <path
     d="m 205.71718,31.4 70.27,70.271 c -8.293,15.616 -33.241,58.821 -75.337,100.665 -41.362,41.112 -83.657,65.516 -98.986,73.658 L 31.392181,205.722 c 12.911,-25.9 37.755,-64.423 70.357999,-97.815 42.6,-43.63 87.773,-68.419 103.967,-76.507 z"
     id="path840"
     style="fill:#4e2a2a;fill-opacity:1"
     inkscape:connector-curvature="0" />
</svg>
